#!OML:ASF F:\VICON\USERDATA\INSTALL\rory3\rory3.ASF
:FULLY-SPECIFIED
:DEGREES
26
root 0.708093882684562 17.831605159707703 4.615795836376024 -1.2508628912132056 1.0589488622455523 3.63354126754728
lfemur 9.286525123898354 -2.197364663293479 -27.69861147334184
ltibia 16.75423160680446
lfoot -15.813511208156168 1.0525124450755454
ltoes -2.0839168151182488
rfemur -26.743893855222836 6.294369916196391 16.007293754757725
rtibia 19.903386014543972
rfoot -7.842111843981737 -16.47972460287314
rtoes -2.8402660515788516
lowerback 9.65387981121089 -0.7236528199689921 -4.634765275686608
upperback 0.4020135519495016 -1.4551750201841953 0.8116009178213218
thorax -4.815703425828008 -0.6059113173513305 3.4895637779728452
lowerneck -17.016550816640986 -2.805865107010691 -2.2046075000473055
upperneck 20.94817699087969 -3.5059151668475277 0.7238536877299905
head 9.476513959199778 -1.7319870426974708 0.17354083605323356
lclavicle -2.4043359075141875e-15 -1.5396287389974662e-16
lhumerus -22.45914189107857 -5.45701962443768 82.75671808665254
lradius 30.540711472678595
lwrist 7.213782857657374
lhand -27.389589324534867 27.166330948337013
lfingers 7.1250199999999975
lthumb -0.796339301631515 57.13528321608276
rclavicle -2.4043359075141875e-15 -1.5396287389974662e-16
rhumerus -30.38204325330604 -20.2416500854874 -78.35352325078304
rradius 22.66066533564138
rwrist 7.557188708431144
rhand -17.333808517270104 22.964905833817653
rfingers 7.1250199999999975
rthumb 8.913096971494639 -6.913826805348905
27
root 0.5722444791070996 17.747829673773193 5.199710787888612 -1.1220514593656388 1.6171065921684904 3.80218520964913
lfemur 11.583193643770564 -3.1056872101682256 -27.855872613128703
ltibia 16.04579691717823
lfoot -16.02250271010849 0.4993601940427195
ltoes -5.734553862759109
rfemur -27.4951764690124 6.300111772023831 15.080719286088941
rtibia 18.793513768631968
rfoot -8.00714674334596 -14.869001956588953
rtoes -3.5252892938754194
lowerback 9.505947165331598 -0.9938541907164956 -5.234510286729012
upperback 0.3653305740147929 -1.8839153248672718 0.863579137287027
thorax -4.773580511323812 -0.8042153821853452 3.7401254233160675
lowerneck -17.117902959711838 -2.8148458319286633 -2.1746772424629515
upperneck 20.8489654748294 -3.5289265395401177 0.7217633691596489
head 9.451002328855362 -1.7366093690551854 0.17096167255118885
lclavicle -3.0466830021645108e-15 -5.824198997263271e-16
lhumerus -21.784267698260827 -5.473337395553971 82.70744506915685
lradius 30.922877262703587
lwrist 7.316961238032486
lhand -28.174059152161334 26.230435651634423
lfingers 7.1250199999999975
lthumb -1.553970210919419 56.200750982522294
rclavicle -3.0466830021645108e-15 -5.824198997263271e-16
rhumerus -31.191117974511442 -22.52477149351149 -77.5731378684114
rradius 21.325660992656683
rwrist 8.979344086855935
rhand -17.631433546900453 22.415319694809725
rfingers 7.1250199999999975
rthumb 8.625803145172911 -7.34269312908046
28
root 0.47064650733399704 17.716100132015306 6.244140324836616 -1.218666951496655 2.276455764348765 3.292068934558371
lfemur 13.71919411569495 -3.871236666672052 -26.621032727793896
ltibia 19.588554067175657
lfoot -13.482907839526234 -1.1966953393393645
ltoes -10.56534793195025
rfemur -26.937970588893698 5.8278040211551 16.66894841647317
rtibia 22.448093701007043
rfoot -6.701694876101854 -10.97221545322287
rtoes -1.7512640895731644
lowerback 9.535294527355038 -1.092183468669591 -4.744680918884471
upperback 0.34690555260626976 -1.9563568766016752 1.2189334188989083
thorax -4.785105387852005 -0.84571953049744 3.9475909665391122
lowerneck -17.255246668076325 -2.7814497799926947 -2.0976315254429365
upperneck 20.94032681244823 -3.461356230983702 0.5532643173817651
head 9.516977613844883 -1.7161168281707386 0.1202275343512213
lclavicle -2.4108802951672545e-15 -1.5832209596178922e-16
lhumerus -21.66323157928504 -4.84989197833525 82.98648288795003
lradius 31.711664435171954
lwrist 7.458409831511647
lhand -29.0550195391922 24.711541746498
lfingers 7.1250199999999975
lthumb -2.4047654540654237 54.670056333348526
rclavicle -2.4108802951672545e-15 -1.5832209596178922e-16
rhumerus -31.8977397776657 -24.12638661629692 -76.2761528880881
rradius 20.39103753565204
rwrist 10.56123103046608
rhand -17.643478610622005 22.197130980057782
rfingers 7.1250199999999975
rthumb 8.614156966181133 -7.422798703098687
29
root 0.35855377262357846 17.7345097871342 6.991806642992769 -1.7150915453612063 2.174423132238335 1.8571600141278903
lfemur 12.865438773477905 -4.0883653848450106 -24.659520905863133
ltibia 27.706944099250506
lfoot -8.25541493700418 -4.786136819816153
ltoes -15.586118196397937
rfemur -26.39800971391552 5.361702834207327 19.35451786116153
rtibia 27.439807757292726
rfoot -5.067391360025834 -6.66264731371563
rtoes 1.416051787565583
lowerback 9.60621194503686 -1.1500328156876103 -3.6716604890424795
upperback 0.3324651922058639 -1.8847836302141525 1.7352556056364288
thorax -4.862114709155115 -0.8260431981798143 3.856804006286208
lowerneck -17.216947562698895 -2.6963656549149153 -1.989772666345892
upperneck 21.176309638289975 -3.31637266017196 0.1866330243348866
head 9.592814001368776 -1.671991881651644 0.02791963632839814
lclavicle -2.5179875067441996e-15 -2.297561440282838e-16
lhumerus -22.58936302712572 -3.926843784640287 83.41073387881524
lradius 31.920487470186732
lwrist 7.266516710637482
lhand -29.50229738704383 23.918875336008583
lfingers 7.1250199999999975
lthumb -2.8367410166306657 53.87034738884981
rclavicle -2.5179875067441996e-15 -2.297561440282838e-16
rhumerus -32.72388272007992 -25.826774968457425 -74.8612810237042
rradius 19.40058398268971
rwrist 12.223198742124668
rhand -17.555694244000932 22.14773035961089
rfingers 7.1250199999999975
rthumb 8.698913287474154 -7.5020303818959935
30
root 0.24883630560697498 17.81458517648996 7.308991079584567 -2.353282961900687 1.9203636670429036 -0.19632109347446924
lfemur 9.694175652747703 -3.8450979634295877 -21.697080116963086
ltibia 37.002275077988465
lfoot 0.10017769326176751 -9.782319424147047
ltoes -16.676528113541593
rfemur -25.21697037213103 5.023500703247137 22.418375855654514
rtibia 32.62504899534694
rfoot -4.6383613995199315 -4.407205119390538
rtoes 5.984042767817652
lowerback 9.688346350508992 -1.2171280713237111 -2.142156768531115
upperback 0.30983477051069247 -1.7679157105238525 2.2976724377352875
thorax -4.947376225458487 -0.7931864359961166 3.515194994106223
lowerneck -17.110749762223122 -2.647709562104877 -1.9290548256821254
upperneck 21.45600252722084 -3.2223690097376543 -0.10549682586954545
head 9.672867879596652 -1.6504176280733573 -0.04905054735696296
lclavicle -2.9245073800728382e-15 -5.009171440114461e-16
lhumerus -24.419020819668695 -3.1115597192989366 83.97701640937191
lradius 31.368879976323658
lwrist 6.786625290249714
lhand -28.822548550980006 24.31327227679534
lfingers 7.1250199999999975
lthumb -2.1802729778628973 54.262659742587864
rclavicle -2.9245073800728382e-15 -5.009171440114461e-16
rhumerus -33.20621640301847 -27.258429384652025 -73.86506457126129
rradius 18.659100089480322
rwrist 13.085246782457428
rhand -17.400135358611585 22.095370474631718
rfingers 7.1250199999999975
rthumb 8.848973019786921 -7.514809775713054
31
root 0.1189910710645718 17.933528112926737 7.881558740799005 -2.9577762684249174 1.7852419311852765 -2.0422851422308157
lfemur 4.275957775828054 -2.8467555858680536 -18.574115797447092
ltibia 49.262276631373446
lfoot 8.368041164765256 -14.141572104023647
ltoes -12.715387016352926
rfemur -22.286293133206087 5.160133297244187 25.17296741810228
rtibia 33.84673475999282
rfoot -5.7023993266190365 -3.758972157668589
rtoes 9.598684099494006
lowerback 9.843077785555005 -1.1826894552172371 -0.5968445652065351
upperback 0.3109741225545669 -1.5151707525260276 2.7483587896199233
thorax -5.0607985958399375 -0.6964940077128509 3.0436143453705133
lowerneck -16.94459235168646 -2.6843682688074084 -1.931672401916604
upperneck 21.619626795534717 -3.2824933420688787 -0.06374173363143831
head 9.703847560392889 -1.676552079598409 -0.05112846138616947
lclavicle -3.246301409997559e-15 -7.155752796405231e-16
lhumerus -26.309532751961335 -2.9711900703457648 84.50576250078672
lradius 30.462480350041012
lwrist 6.402254041097537
lhand -27.883508534310344 24.307169535602082
lfingers 7.1250199999999975
lthumb -1.2733548981095848 54.261168329029154
rclavicle -3.246301409997559e-15 -7.155752796405231e-16
rhumerus -33.20591252766287 -27.466236513356723 -73.80152166853235
rradius 18.418412534959426
rwrist 13.184425912425276
rhand -17.067061872596447 21.917870420583988
rfingers 7.1250199999999975
rthumb 9.170480654681535 -7.7459756941945
32
root 0.00023868585665209885 18.06083368209681 9.585779949265385 -3.3710153281928417 1.5293932269516946 -3.685596005532219
lfemur -2.2436337114640494 -1.1909995874203008 -15.461552418274605
ltibia 60.5863803649989
lfoot 12.4861578305673 -15.191082906505086
ltoes -7.786879124655215
rfemur -17.983496153234444 5.657194182574164 27.991154861251662
rtibia 33.68495819995247
rfoot -8.3339120158735 -4.530514323534342
rtoes 10.839100205065952
lowerback 9.99285165268171 -0.9085085739382718 1.02254405446475
upperback 0.41075019644732236 -0.9499252196939212 3.0426670691064888
thorax -5.087004420355607 -0.45058223222645666 2.5011604380773416
lowerneck -16.811187904741317 -2.7959835528492922 -1.8510699305530929
upperneck 21.71069928405551 -3.484658564290572 0.2423894835328141
head 9.721224891839178 -1.74344649172547 0.0011645437125137603
lclavicle -2.882849717595181e-15 -4.731583312365009e-16
lhumerus -27.57283886327775 -2.8833760425788455 84.94024477786711
lradius 29.306890832312295
lwrist 5.48361882491838
lhand -26.78343416413857 24.954685280038742
lfingers 7.1250199999999975
lthumb -0.21091839666318712 54.91817193643042
rclavicle -2.882849717595181e-15 -4.731583312365009e-16
rhumerus -32.29612633195173 -25.718933241216217 -74.91265899004607
rradius 19.034325253605754
rwrist 11.860530235709932
rhand -16.809200842196258 22.781400574888227
rfingers 7.1250199999999975
rthumb 9.419340487732887 -6.916205363705811
33
root -0.0643817375789798 18.1720708577426 11.400914725911525 -3.6724104942646525 0.8890026933169359 -4.7803601403922285
lfemur -9.141669194116002 0.6245046733572366 -13.691363453198335
ltibia 68.06731364094415
lfoot 9.674380067778714 -12.77332503864928
ltoes -5.965877126060764
rfemur -14.121333997782541 5.934491016429618 29.824333306568054
rtibia 32.81226343728224
rfoot -10.169047574771298 -5.68726363454729
rtoes 10.597986860433544
lowerback 10.088270333385147 -0.45514673020511454 2.1202340136095525
upperback 0.5096254518904826 -0.21282066551094814 3.028768252596599
thorax -5.093058030728851 -0.11348569541289033 1.8268188555034315
lowerneck -16.650568696613472 -2.922337286241307 -1.8390016036510084
upperneck 21.746411018701753 -3.7130540510452725 0.573705902821193
head 9.708401175084823 -1.8166478412437344 0.06532089822273629
lclavicle -2.914826723702507e-15 -4.94478121927484e-16
lhumerus -28.737742168737533 -2.8229596414315754 85.15497203067915
lradius 28.303562689713214
lwrist 4.589738060767642
lhand -26.398477901419213 25.04354343281933
lfingers 7.1250199999999975
lthumb 0.160882517713682 55.01742905870087
rclavicle -2.914826723702507e-15 -4.94478121927484e-16
rhumerus -31.014194637586254 -23.520686181727818 -76.54322906863582
rradius 19.93953328572089
rwrist 10.122909859256032
rhand -16.608799253691032 22.875871546295702
rfingers 7.1250199999999975
rthumb 9.612794201890274 -6.778540081471086
